<svg width="198" height="54" viewBox="0 0 198 54" fill="none" xmlns="http://www.w3.org/2000/svg">
<path d="M0 8C0 3.58172 3.58172 0 8 0H26V26H0V8Z" fill="#F24194"/>
<path d="M11.854 20V6H14.154V20H11.854Z" fill="white"/>
<path d="M28 0H46C50.4183 0 54 3.58172 54 8V26H28V0Z" fill="#F24194"/>
<path d="M34.4585 20L40.2185 6H41.8185L47.5385 20H45.0585L40.5785 8.66H41.4185L36.8985 20H34.4585ZM37.2985 17.3V15.3H44.7185V17.3H37.2985Z" fill="white"/>
<path d="M0 28H26V54H8C3.58172 54 0 50.4183 0 46V28Z" fill="#F24194"/>
<path d="M9.8207 42.06V40.16H13.3607C14.0674 40.16 14.614 39.98 15.0007 39.62C15.4007 39.2467 15.6007 38.7333 15.6007 38.08C15.6007 37.4933 15.4074 37 15.0207 36.6C14.634 36.2 14.0874 36 13.3807 36H9.8207V34H13.4807C14.3607 34 15.134 34.18 15.8007 34.54C16.4674 34.8867 16.9807 35.3667 17.3407 35.98C17.714 36.58 17.9007 37.2667 17.9007 38.04C17.9007 38.8533 17.714 39.56 17.3407 40.16C16.9807 40.76 16.4674 41.2267 15.8007 41.56C15.134 41.8933 14.3607 42.06 13.4807 42.06H9.8207ZM8.2407 48V34H10.5407V48H8.2407ZM15.9207 48L11.0207 41.92L13.1607 41.14L18.8207 48H15.9207Z" fill="white"/>
<path d="M28 28H54V46C54 50.4183 50.4183 54 46 54H28V28Z" fill="#F24194"/>
<path d="M34.4585 48L40.2185 34H41.8185L47.5385 48H45.0585L40.5785 36.66H41.4185L36.8985 48H34.4585ZM37.2985 45.3V43.3H44.7185V45.3H37.2985Z" fill="white"/>
<path d="M63.976 36V17.8H66.966V36H63.976ZM75.7436 36.26C74.617 36.26 73.5943 35.974 72.6756 35.402C71.7743 34.83 71.055 34.0587 70.5176 33.088C69.9976 32.1 69.7376 30.9993 69.7376 29.786C69.7376 28.5553 69.9976 27.4547 70.5176 26.484C71.055 25.496 71.7743 24.716 72.6756 24.144C73.5943 23.5547 74.617 23.26 75.7436 23.26C76.697 23.26 77.5376 23.468 78.2656 23.884C79.011 24.2827 79.6003 24.8373 80.0336 25.548C80.467 26.2587 80.6836 27.0647 80.6836 27.966V31.554C80.6836 32.4553 80.467 33.2613 80.0336 33.972C79.6176 34.6827 79.037 35.246 78.2916 35.662C77.5463 36.0607 76.697 36.26 75.7436 36.26ZM76.2116 33.556C77.269 33.556 78.1183 33.2007 78.7596 32.49C79.4183 31.7793 79.7476 30.8693 79.7476 29.76C79.7476 29.0147 79.6003 28.356 79.3056 27.784C79.011 27.212 78.595 26.77 78.0576 26.458C77.5376 26.1287 76.9223 25.964 76.2116 25.964C75.5183 25.964 74.903 26.1287 74.3656 26.458C73.8456 26.77 73.4296 27.212 73.1176 27.784C72.823 28.356 72.6756 29.0147 72.6756 29.76C72.6756 30.5053 72.823 31.164 73.1176 31.736C73.4296 32.308 73.8456 32.7587 74.3656 33.088C74.903 33.4 75.5183 33.556 76.2116 33.556ZM79.5656 36V32.646L80.0596 29.604L79.5656 26.588V23.52H82.4256V36H79.5656ZM85.5997 36V23.52H88.4597V36H85.5997ZM88.4597 29.058L87.4717 28.564C87.4717 26.9867 87.8183 25.7127 88.5117 24.742C89.2223 23.754 90.2883 23.26 91.7097 23.26C92.3337 23.26 92.897 23.3727 93.3997 23.598C93.9023 23.8233 94.3703 24.1873 94.8037 24.69L92.9317 26.614C92.7063 26.3713 92.455 26.198 92.1777 26.094C91.9003 25.99 91.5797 25.938 91.2157 25.938C90.4183 25.938 89.7597 26.1893 89.2397 26.692C88.7197 27.1947 88.4597 27.9833 88.4597 29.058ZM101.033 36.26C99.906 36.26 98.8834 35.974 97.9647 35.402C97.0634 34.83 96.344 34.0587 95.8067 33.088C95.2867 32.1 95.0267 30.9993 95.0267 29.786C95.0267 28.5553 95.2867 27.4547 95.8067 26.484C96.344 25.496 97.0634 24.716 97.9647 24.144C98.8834 23.5547 99.906 23.26 101.033 23.26C101.986 23.26 102.827 23.468 103.555 23.884C104.3 24.2827 104.889 24.8373 105.323 25.548C105.756 26.2587 105.973 27.0647 105.973 27.966V31.554C105.973 32.4553 105.756 33.2613 105.323 33.972C104.907 34.6827 104.326 35.246 103.581 35.662C102.835 36.0607 101.986 36.26 101.033 36.26ZM101.501 33.556C102.558 33.556 103.407 33.2007 104.049 32.49C104.707 31.7793 105.037 30.8693 105.037 29.76C105.037 29.0147 104.889 28.356 104.595 27.784C104.3 27.212 103.884 26.77 103.347 26.458C102.827 26.1287 102.211 25.964 101.501 25.964C100.807 25.964 100.192 26.1287 99.6547 26.458C99.1347 26.77 98.7187 27.212 98.4067 27.784C98.112 28.356 97.9647 29.0147 97.9647 29.76C97.9647 30.5053 98.112 31.164 98.4067 31.736C98.7187 32.308 99.1347 32.7587 99.6547 33.088C100.192 33.4 100.807 33.556 101.501 33.556ZM104.855 36V32.646L105.349 29.604L104.855 26.588V23.52H107.715V36H104.855ZM124.7 36.26C123.452 36.26 122.273 36.0173 121.164 35.532C120.054 35.0467 119.084 34.3793 118.252 33.53C117.42 32.6633 116.761 31.6667 116.276 30.54C115.808 29.396 115.574 28.174 115.574 26.874C115.574 25.574 115.808 24.3607 116.276 23.234C116.761 22.1073 117.42 21.1193 118.252 20.27C119.101 19.4033 120.089 18.736 121.216 18.268C122.36 17.7827 123.59 17.54 124.908 17.54C126.346 17.54 127.681 17.8173 128.912 18.372C130.142 18.9267 131.174 19.7153 132.006 20.738L129.978 22.766C129.44 22.0033 128.721 21.4227 127.82 21.024C126.918 20.608 125.948 20.4 124.908 20.4C123.66 20.4 122.559 20.6773 121.606 21.232C120.67 21.7693 119.942 22.5233 119.422 23.494C118.902 24.4647 118.642 25.5913 118.642 26.874C118.642 28.1567 118.902 29.292 119.422 30.28C119.959 31.2507 120.678 32.0133 121.58 32.568C122.481 33.1227 123.504 33.4 124.648 33.4C125.861 33.4 126.901 33.1833 127.768 32.75C128.652 32.2993 129.328 31.6407 129.796 30.774C130.264 29.89 130.498 28.8067 130.498 27.524L132.37 28.876H124.596V26.146H133.592V26.562C133.592 28.7287 133.202 30.5313 132.422 31.97C131.659 33.4087 130.61 34.4833 129.276 35.194C127.941 35.9047 126.416 36.26 124.7 36.26ZM141.404 36.26C140.277 36.26 139.254 35.974 138.336 35.402C137.434 34.83 136.715 34.0587 136.178 33.088C135.658 32.1 135.398 30.9993 135.398 29.786C135.398 28.5553 135.658 27.4547 136.178 26.484C136.715 25.496 137.434 24.716 138.336 24.144C139.254 23.5547 140.277 23.26 141.404 23.26C142.357 23.26 143.198 23.468 143.926 23.884C144.671 24.2827 145.26 24.8373 145.694 25.548C146.127 26.2587 146.344 27.0647 146.344 27.966V31.554C146.344 32.4553 146.127 33.2613 145.694 33.972C145.278 34.6827 144.697 35.246 143.952 35.662C143.206 36.0607 142.357 36.26 141.404 36.26ZM141.872 33.556C142.929 33.556 143.778 33.2007 144.42 32.49C145.078 31.7793 145.408 30.8693 145.408 29.76C145.408 29.0147 145.26 28.356 144.966 27.784C144.671 27.212 144.255 26.77 143.718 26.458C143.198 26.1287 142.582 25.964 141.872 25.964C141.178 25.964 140.563 26.1287 140.026 26.458C139.506 26.77 139.09 27.212 138.778 27.784C138.483 28.356 138.336 29.0147 138.336 29.76C138.336 30.5053 138.483 31.164 138.778 31.736C139.09 32.308 139.506 32.7587 140.026 33.088C140.563 33.4 141.178 33.556 141.872 33.556ZM145.226 36V32.646L145.72 29.604L145.226 26.588V23.52H148.086V36H145.226ZM151.26 36V23.52H154.12V36H151.26ZM159.554 36V28.564C159.554 27.732 159.294 27.0907 158.774 26.64C158.254 26.172 157.612 25.938 156.85 25.938C156.33 25.938 155.862 26.042 155.446 26.25C155.047 26.458 154.726 26.7613 154.484 27.16C154.241 27.5413 154.12 28.0093 154.12 28.564L153.002 27.94C153.002 26.9867 153.21 26.1633 153.626 25.47C154.042 24.7767 154.605 24.2393 155.316 23.858C156.026 23.4593 156.824 23.26 157.708 23.26C158.592 23.26 159.389 23.4507 160.1 23.832C160.81 24.2133 161.374 24.7507 161.79 25.444C162.206 26.1373 162.414 26.9693 162.414 27.94V36H159.554ZM167.848 36V28.564C167.848 27.732 167.588 27.0907 167.068 26.64C166.548 26.172 165.906 25.938 165.144 25.938C164.641 25.938 164.182 26.042 163.766 26.25C163.35 26.458 163.02 26.7613 162.778 27.16C162.535 27.5413 162.414 28.0093 162.414 28.564L160.802 27.94C160.888 26.9867 161.166 26.1633 161.634 25.47C162.102 24.7767 162.7 24.2393 163.428 23.858C164.173 23.4593 164.988 23.26 165.872 23.26C166.773 23.26 167.588 23.4507 168.316 23.832C169.044 24.2133 169.624 24.7507 170.058 25.444C170.491 26.1373 170.708 26.9693 170.708 27.94V36H167.848ZM179.452 36.26C178.204 36.26 177.078 35.9827 176.072 35.428C175.084 34.856 174.296 34.076 173.706 33.088C173.134 32.1 172.848 30.9907 172.848 29.76C172.848 28.5293 173.134 27.4287 173.706 26.458C174.278 25.47 175.05 24.69 176.02 24.118C177.008 23.546 178.1 23.26 179.296 23.26C180.458 23.26 181.48 23.5287 182.364 24.066C183.266 24.6033 183.968 25.34 184.47 26.276C184.99 27.212 185.25 28.278 185.25 29.474C185.25 29.682 185.233 29.8987 185.198 30.124C185.181 30.332 185.146 30.566 185.094 30.826H174.85V28.486H183.612L182.546 29.422C182.512 28.6593 182.364 28.018 182.104 27.498C181.844 26.978 181.472 26.5793 180.986 26.302C180.518 26.0247 179.938 25.886 179.244 25.886C178.516 25.886 177.884 26.042 177.346 26.354C176.809 26.666 176.393 27.108 176.098 27.68C175.804 28.2347 175.656 28.902 175.656 29.682C175.656 30.462 175.812 31.1467 176.124 31.736C176.436 32.3253 176.878 32.7847 177.45 33.114C178.022 33.426 178.681 33.582 179.426 33.582C180.068 33.582 180.657 33.4693 181.194 33.244C181.749 33.0187 182.217 32.6893 182.598 32.256L184.418 34.102C183.812 34.8127 183.075 35.35 182.208 35.714C181.342 36.078 180.423 36.26 179.452 36.26ZM191.625 36.26C190.932 36.26 190.264 36.1733 189.623 36C188.982 35.8093 188.392 35.5493 187.855 35.22C187.318 34.8733 186.85 34.4573 186.451 33.972L188.271 32.152C188.704 32.6547 189.198 33.036 189.753 33.296C190.325 33.5387 190.966 33.66 191.677 33.66C192.318 33.66 192.804 33.5647 193.133 33.374C193.462 33.1833 193.627 32.906 193.627 32.542C193.627 32.1607 193.471 31.866 193.159 31.658C192.847 31.45 192.44 31.2767 191.937 31.138C191.452 30.982 190.932 30.826 190.377 30.67C189.84 30.514 189.32 30.306 188.817 30.046C188.332 29.7687 187.933 29.396 187.621 28.928C187.309 28.46 187.153 27.8533 187.153 27.108C187.153 26.3107 187.335 25.626 187.699 25.054C188.08 24.482 188.609 24.04 189.285 23.728C189.978 23.416 190.802 23.26 191.755 23.26C192.76 23.26 193.644 23.442 194.407 23.806C195.187 24.1527 195.837 24.6813 196.357 25.392L194.537 27.212C194.173 26.7613 193.757 26.4233 193.289 26.198C192.821 25.9727 192.284 25.86 191.677 25.86C191.105 25.86 190.663 25.9467 190.351 26.12C190.039 26.2933 189.883 26.5447 189.883 26.874C189.883 27.2207 190.039 27.4893 190.351 27.68C190.663 27.8707 191.062 28.0353 191.547 28.174C192.05 28.3127 192.57 28.4687 193.107 28.642C193.662 28.798 194.182 29.0233 194.667 29.318C195.17 29.5953 195.577 29.9767 195.889 30.462C196.201 30.93 196.357 31.5453 196.357 32.308C196.357 33.5213 195.932 34.4833 195.083 35.194C194.234 35.9047 193.081 36.26 191.625 36.26Z" fill="#1E71E7"/>
</svg>
