<svg width="266" height="64" viewBox="0 0 266 64" fill="none" xmlns="http://www.w3.org/2000/svg">
<path d="M0 8C0 3.58172 3.58172 0 8 0H30V30H0V8Z" fill="#F24194"/>
<path d="M13.8743 23V6.344H16.1303V23H13.8743Z" fill="white"/>
<path d="M34 0H56C60.4183 0 64 3.58172 64 8V30H34V0Z" fill="#F24194"/>
<path d="M41.3885 23L48.2045 6.344H49.8365L56.6285 23H54.1805L48.5885 8.912H49.4285L43.7885 23H41.3885ZM44.6285 19.232V17.264H53.3885V19.232H44.6285Z" fill="white"/>
<path d="M0 34H30V64H8C3.58172 64 0 60.4183 0 56V34Z" fill="#F24194"/>
<path d="M10.9214 49.752V47.856H15.4334C16.4094 47.856 17.1614 47.608 17.6894 47.112C18.2174 46.616 18.4814 45.944 18.4814 45.096C18.4814 44.296 18.2174 43.632 17.6894 43.104C17.1774 42.576 16.4334 42.312 15.4574 42.312H10.9214V40.344H15.5294C16.5854 40.344 17.5054 40.552 18.2894 40.968C19.0734 41.368 19.6734 41.92 20.0894 42.624C20.5214 43.328 20.7374 44.136 20.7374 45.048C20.7374 45.992 20.5214 46.816 20.0894 47.52C19.6734 48.224 19.0734 48.776 18.2894 49.176C17.5054 49.56 16.5854 49.752 15.5294 49.752H10.9214ZM9.40941 57V40.344H11.6654V57H9.40941ZM19.0094 57L12.9614 49.536L15.0974 48.792L21.8654 57H19.0094Z" fill="white"/>
<path d="M34 34H64V56C64 60.4183 60.4183 64 56 64H34V34Z" fill="#F24194"/>
<path d="M41.3885 57L48.2045 40.344H49.8365L56.6285 57H54.1805L48.5885 42.912H49.4285L43.7885 57H41.3885ZM44.6285 53.232V51.264H53.3885V53.232H44.6285Z" fill="white"/>
<rect x="76" y="14" width="190" height="40" fill="white"/>
<path d="M78.952 46V21.016H82.336V46H78.952ZM94.9293 46.36C93.3693 46.36 91.9533 45.976 90.6813 45.208C89.4093 44.416 88.4013 43.348 87.6572 42.004C86.9373 40.66 86.5773 39.148 86.5773 37.468C86.5773 35.788 86.9373 34.276 87.6572 32.932C88.4013 31.588 89.3973 30.52 90.6453 29.728C91.9173 28.936 93.3453 28.54 94.9293 28.54C96.2253 28.54 97.3773 28.816 98.3853 29.368C99.4173 29.896 100.245 30.64 100.869 31.6C101.493 32.536 101.841 33.628 101.913 34.876V40.024C101.841 41.248 101.493 42.34 100.869 43.3C100.269 44.26 99.4533 45.016 98.4213 45.568C97.4133 46.096 96.2493 46.36 94.9293 46.36ZM95.4693 43.3C97.0773 43.3 98.3733 42.76 99.3573 41.68C100.341 40.576 100.833 39.172 100.833 37.468C100.833 36.292 100.605 35.272 100.149 34.408C99.7173 33.52 99.0933 32.836 98.2773 32.356C97.4613 31.852 96.5133 31.6 95.4333 31.6C94.3533 31.6 93.3933 31.852 92.5533 32.356C91.7373 32.86 91.0893 33.556 90.6093 34.444C90.1533 35.308 89.9253 36.304 89.9253 37.432C89.9253 38.584 90.1533 39.604 90.6093 40.492C91.0893 41.356 91.7493 42.04 92.5893 42.544C93.4293 43.048 94.3893 43.3 95.4693 43.3ZM100.617 46V41.392L101.229 37.216L100.617 33.076V28.9H103.893V46H100.617ZM108.61 46V28.9H111.85V46H108.61ZM111.85 36.244L110.626 35.704C110.626 33.52 111.13 31.78 112.138 30.484C113.146 29.188 114.598 28.54 116.494 28.54C117.358 28.54 118.138 28.696 118.834 29.008C119.53 29.296 120.178 29.788 120.778 30.484L118.654 32.68C118.294 32.296 117.898 32.02 117.466 31.852C117.034 31.684 116.53 31.6 115.954 31.6C114.754 31.6 113.77 31.984 113.002 32.752C112.234 33.52 111.85 34.684 111.85 36.244ZM129.769 46.36C128.209 46.36 126.793 45.976 125.521 45.208C124.249 44.416 123.241 43.348 122.497 42.004C121.777 40.66 121.417 39.148 121.417 37.468C121.417 35.788 121.777 34.276 122.497 32.932C123.241 31.588 124.237 30.52 125.485 29.728C126.757 28.936 128.185 28.54 129.769 28.54C131.065 28.54 132.217 28.816 133.225 29.368C134.257 29.896 135.085 30.64 135.709 31.6C136.333 32.536 136.681 33.628 136.753 34.876V40.024C136.681 41.248 136.333 42.34 135.709 43.3C135.109 44.26 134.293 45.016 133.261 45.568C132.253 46.096 131.089 46.36 129.769 46.36ZM130.309 43.3C131.917 43.3 133.213 42.76 134.197 41.68C135.181 40.576 135.673 39.172 135.673 37.468C135.673 36.292 135.445 35.272 134.989 34.408C134.557 33.52 133.933 32.836 133.117 32.356C132.301 31.852 131.353 31.6 130.273 31.6C129.193 31.6 128.233 31.852 127.393 32.356C126.577 32.86 125.929 33.556 125.449 34.444C124.993 35.308 124.765 36.304 124.765 37.432C124.765 38.584 124.993 39.604 125.449 40.492C125.929 41.356 126.589 42.04 127.429 42.544C128.269 43.048 129.229 43.3 130.309 43.3ZM135.457 46V41.392L136.069 37.216L135.457 33.076V28.9H138.733V46H135.457ZM162.819 46.36C161.067 46.36 159.423 46.036 157.887 45.388C156.375 44.716 155.043 43.792 153.891 42.616C152.763 41.44 151.875 40.072 151.227 38.512C150.579 36.952 150.255 35.272 150.255 33.472C150.255 31.672 150.579 30.004 151.227 28.468C151.875 26.908 152.775 25.54 153.927 24.364C155.079 23.188 156.423 22.276 157.959 21.628C159.519 20.98 161.211 20.656 163.035 20.656C165.027 20.656 166.863 21.04 168.543 21.808C170.223 22.576 171.627 23.68 172.755 25.12L170.415 27.46C169.623 26.308 168.579 25.432 167.283 24.832C165.987 24.208 164.571 23.896 163.035 23.896C161.211 23.896 159.591 24.304 158.175 25.12C156.783 25.936 155.691 27.064 154.899 28.504C154.131 29.944 153.747 31.6 153.747 33.472C153.747 35.368 154.143 37.036 154.935 38.476C155.727 39.916 156.795 41.044 158.139 41.86C159.483 42.676 161.019 43.084 162.747 43.084C164.499 43.084 166.011 42.748 167.283 42.076C168.579 41.404 169.575 40.42 170.271 39.124C170.967 37.804 171.315 36.196 171.315 34.3L173.367 35.776H162.567V32.68H174.807V33.184C174.807 36.088 174.291 38.524 173.259 40.492C172.251 42.436 170.835 43.9 169.011 44.884C167.211 45.868 165.147 46.36 162.819 46.36ZM186.054 46.36C184.494 46.36 183.078 45.976 181.806 45.208C180.534 44.416 179.526 43.348 178.782 42.004C178.062 40.66 177.702 39.148 177.702 37.468C177.702 35.788 178.062 34.276 178.782 32.932C179.526 31.588 180.522 30.52 181.77 29.728C183.042 28.936 184.47 28.54 186.054 28.54C187.35 28.54 188.502 28.816 189.51 29.368C190.542 29.896 191.37 30.64 191.994 31.6C192.618 32.536 192.966 33.628 193.038 34.876V40.024C192.966 41.248 192.618 42.34 191.994 43.3C191.394 44.26 190.578 45.016 189.546 45.568C188.538 46.096 187.374 46.36 186.054 46.36ZM186.594 43.3C188.202 43.3 189.498 42.76 190.482 41.68C191.466 40.576 191.958 39.172 191.958 37.468C191.958 36.292 191.73 35.272 191.274 34.408C190.842 33.52 190.218 32.836 189.402 32.356C188.586 31.852 187.638 31.6 186.558 31.6C185.478 31.6 184.518 31.852 183.678 32.356C182.862 32.86 182.214 33.556 181.734 34.444C181.278 35.308 181.05 36.304 181.05 37.432C181.05 38.584 181.278 39.604 181.734 40.492C182.214 41.356 182.874 42.04 183.714 42.544C184.554 43.048 185.514 43.3 186.594 43.3ZM191.742 46V41.392L192.354 37.216L191.742 33.076V28.9H195.018V46H191.742ZM199.735 46V28.9H202.975V46H199.735ZM211.291 46V35.668C211.291 34.396 210.895 33.4 210.103 32.68C209.335 31.936 208.363 31.564 207.187 31.564C206.395 31.564 205.687 31.732 205.063 32.068C204.439 32.404 203.935 32.872 203.551 33.472C203.167 34.072 202.975 34.792 202.975 35.632L201.643 34.984C201.643 33.688 201.919 32.56 202.471 31.6C203.047 30.64 203.827 29.896 204.811 29.368C205.795 28.816 206.899 28.54 208.123 28.54C209.323 28.54 210.403 28.804 211.363 29.332C212.347 29.86 213.115 30.604 213.667 31.564C214.243 32.524 214.531 33.664 214.531 34.984V46H211.291ZM222.847 46V35.668C222.847 34.396 222.451 33.4 221.659 32.68C220.891 31.936 219.931 31.564 218.779 31.564C217.987 31.564 217.267 31.732 216.619 32.068C215.995 32.404 215.491 32.872 215.107 33.472C214.723 34.072 214.531 34.792 214.531 35.632L212.695 34.984C212.767 33.664 213.115 32.536 213.739 31.6C214.387 30.64 215.215 29.896 216.223 29.368C217.231 28.816 218.335 28.54 219.535 28.54C220.783 28.54 221.899 28.804 222.883 29.332C223.867 29.86 224.647 30.604 225.223 31.564C225.823 32.524 226.123 33.676 226.123 35.02V46H222.847ZM238.452 46.36C236.748 46.36 235.212 45.976 233.844 45.208C232.476 44.416 231.396 43.348 230.604 42.004C229.812 40.66 229.416 39.136 229.416 37.432C229.416 35.752 229.8 34.24 230.568 32.896C231.36 31.552 232.416 30.496 233.736 29.728C235.08 28.936 236.58 28.54 238.236 28.54C239.82 28.54 241.212 28.9 242.412 29.62C243.636 30.34 244.584 31.336 245.256 32.608C245.952 33.88 246.3 35.32 246.3 36.928C246.3 37.168 246.288 37.432 246.264 37.72C246.24 37.984 246.192 38.296 246.12 38.656H231.684V35.956H244.392L243.204 37C243.204 35.848 243 34.876 242.592 34.084C242.184 33.268 241.608 32.644 240.864 32.212C240.12 31.756 239.22 31.528 238.164 31.528C237.06 31.528 236.088 31.768 235.248 32.248C234.408 32.728 233.76 33.4 233.304 34.264C232.848 35.128 232.62 36.148 232.62 37.324C232.62 38.524 232.86 39.58 233.34 40.492C233.82 41.38 234.504 42.076 235.392 42.58C236.28 43.06 237.3 43.3 238.452 43.3C239.412 43.3 240.288 43.132 241.08 42.796C241.896 42.46 242.592 41.956 243.168 41.284L245.256 43.408C244.44 44.368 243.432 45.1 242.232 45.604C241.056 46.108 239.796 46.36 238.452 46.36ZM255.269 46.36C254.309 46.36 253.397 46.24 252.533 46C251.693 45.736 250.913 45.376 250.193 44.92C249.473 44.44 248.849 43.876 248.321 43.228L250.409 41.14C251.033 41.908 251.753 42.484 252.569 42.868C253.385 43.228 254.297 43.408 255.305 43.408C256.313 43.408 257.093 43.24 257.645 42.904C258.197 42.544 258.473 42.052 258.473 41.428C258.473 40.804 258.245 40.324 257.789 39.988C257.357 39.628 256.793 39.34 256.097 39.124C255.401 38.884 254.657 38.656 253.865 38.44C253.097 38.2 252.365 37.9 251.669 37.54C250.973 37.18 250.397 36.688 249.941 36.064C249.509 35.44 249.293 34.612 249.293 33.58C249.293 32.548 249.545 31.66 250.049 30.916C250.553 30.148 251.249 29.56 252.137 29.152C253.049 28.744 254.141 28.54 255.413 28.54C256.757 28.54 257.945 28.78 258.977 29.26C260.033 29.716 260.897 30.412 261.569 31.348L259.481 33.436C259.001 32.812 258.401 32.332 257.681 31.996C256.985 31.66 256.193 31.492 255.305 31.492C254.369 31.492 253.649 31.66 253.145 31.996C252.665 32.308 252.425 32.752 252.425 33.328C252.425 33.904 252.641 34.348 253.073 34.66C253.505 34.972 254.069 35.236 254.765 35.452C255.485 35.668 256.229 35.896 256.997 36.136C257.765 36.352 258.497 36.652 259.193 37.036C259.889 37.42 260.453 37.936 260.885 38.584C261.341 39.232 261.569 40.084 261.569 41.14C261.569 42.748 260.993 44.02 259.841 44.956C258.713 45.892 257.189 46.36 255.269 46.36Z" fill="#1E71E7"/>
</svg>
