<svg width="152" height="24" viewBox="0 0 152 24" fill="none" xmlns="http://www.w3.org/2000/svg">
<path d="M0.432 23V0.599998H4.112V23H0.432ZM13.6353 23.32C12.2486 23.32 10.9899 22.968 9.85925 22.264C8.74992 21.56 7.86458 20.6107 7.20325 19.416C6.56325 18.2 6.24325 16.8453 6.24325 15.352C6.24325 13.8373 6.56325 12.4827 7.20325 11.288C7.86458 10.072 8.74992 9.112 9.85925 8.408C10.9899 7.68267 12.2486 7.32 13.6353 7.32C14.8086 7.32 15.8433 7.576 16.7393 8.088C17.6566 8.57867 18.3819 9.26133 18.9153 10.136C19.4486 11.0107 19.7153 12.0027 19.7153 13.112V17.528C19.7153 18.6373 19.4486 19.6293 18.9153 20.504C18.4033 21.3787 17.6886 22.072 16.7713 22.584C15.8539 23.0747 14.8086 23.32 13.6353 23.32ZM14.2113 19.992C15.5126 19.992 16.5579 19.5547 17.3473 18.68C18.1579 17.8053 18.5633 16.6853 18.5633 15.32C18.5633 14.4027 18.3819 13.592 18.0193 12.888C17.6566 12.184 17.1446 11.64 16.4833 11.256C15.8433 10.8507 15.0859 10.648 14.2113 10.648C13.3579 10.648 12.6006 10.8507 11.9393 11.256C11.2993 11.64 10.7873 12.184 10.4033 12.888C10.0406 13.592 9.85925 14.4027 9.85925 15.32C9.85925 16.2373 10.0406 17.048 10.4033 17.752C10.7873 18.456 11.2993 19.0107 11.9393 19.416C12.6006 19.8 13.3579 19.992 14.2113 19.992ZM18.3393 23V18.872L18.9473 15.128L18.3393 11.416V7.64H21.8593V23H18.3393ZM24.4858 23V7.64H28.0058V23H24.4858ZM28.0058 14.456L26.7898 13.848C26.7898 11.9067 27.2164 10.3387 28.0698 9.144C28.9444 7.928 30.2564 7.32 32.0058 7.32C32.7738 7.32 33.4671 7.45867 34.0858 7.736C34.7044 8.01333 35.2804 8.46133 35.8138 9.08L33.5098 11.448C33.2324 11.1493 32.9231 10.936 32.5818 10.808C32.2404 10.68 31.8458 10.616 31.3978 10.616C30.4164 10.616 29.6058 10.9253 28.9658 11.544C28.3258 12.1627 28.0058 13.1333 28.0058 14.456ZM42.2003 23.32C40.8136 23.32 39.5549 22.968 38.4243 22.264C37.3149 21.56 36.4296 20.6107 35.7682 19.416C35.1282 18.2 34.8082 16.8453 34.8082 15.352C34.8082 13.8373 35.1282 12.4827 35.7682 11.288C36.4296 10.072 37.3149 9.112 38.4243 8.408C39.5549 7.68267 40.8136 7.32 42.2003 7.32C43.3736 7.32 44.4083 7.576 45.3043 8.088C46.2216 8.57867 46.9469 9.26133 47.4803 10.136C48.0136 11.0107 48.2803 12.0027 48.2803 13.112V17.528C48.2803 18.6373 48.0136 19.6293 47.4803 20.504C46.9683 21.3787 46.2536 22.072 45.3363 22.584C44.4189 23.0747 43.3736 23.32 42.2003 23.32ZM42.7762 19.992C44.0776 19.992 45.1229 19.5547 45.9123 18.68C46.7229 17.8053 47.1283 16.6853 47.1283 15.32C47.1283 14.4027 46.9469 13.592 46.5843 12.888C46.2216 12.184 45.7096 11.64 45.0483 11.256C44.4083 10.8507 43.6509 10.648 42.7762 10.648C41.9229 10.648 41.1656 10.8507 40.5043 11.256C39.8643 11.64 39.3523 12.184 38.9683 12.888C38.6056 13.592 38.4243 14.4027 38.4243 15.32C38.4243 16.2373 38.6056 17.048 38.9683 17.752C39.3523 18.456 39.8643 19.0107 40.5043 19.416C41.1656 19.8 41.9229 19.992 42.7762 19.992ZM46.9043 23V18.872L47.5123 15.128L46.9043 11.416V7.64H50.4243V23H46.9043ZM68.769 23.32C67.233 23.32 65.7823 23.0213 64.417 22.424C63.0517 21.8267 61.857 21.0053 60.833 19.96C59.809 18.8933 58.9983 17.6667 58.401 16.28C57.825 14.872 57.537 13.368 57.537 11.768C57.537 10.168 57.825 8.67467 58.401 7.288C58.9983 5.90133 59.809 4.68533 60.833 3.64C61.8783 2.57333 63.0943 1.752 64.481 1.176C65.889 0.578665 67.4037 0.279999 69.025 0.279999C70.7957 0.279999 72.4383 0.621332 73.953 1.304C75.4677 1.98667 76.737 2.95733 77.761 4.216L75.265 6.712C74.6037 5.77333 73.7183 5.05867 72.609 4.568C71.4997 4.056 70.305 3.8 69.025 3.8C67.489 3.8 66.1343 4.14133 64.961 4.824C63.809 5.48533 62.913 6.41333 62.273 7.608C61.633 8.80267 61.313 10.1893 61.313 11.768C61.313 13.3467 61.633 14.744 62.273 15.96C62.9343 17.1547 63.8197 18.0933 64.929 18.776C66.0383 19.4587 67.297 19.8 68.705 19.8C70.1983 19.8 71.4783 19.5333 72.545 19C73.633 18.4453 74.465 17.6347 75.041 16.568C75.617 15.48 75.905 14.1467 75.905 12.568L78.209 14.232H68.641V10.872H79.713V11.384C79.713 14.0507 79.233 16.2693 78.273 18.04C77.3343 19.8107 76.0437 21.1333 74.401 22.008C72.7583 22.8827 70.881 23.32 68.769 23.32ZM88.0478 23.32C86.6611 23.32 85.4024 22.968 84.2717 22.264C83.1624 21.56 82.2771 20.6107 81.6157 19.416C80.9757 18.2 80.6557 16.8453 80.6557 15.352C80.6557 13.8373 80.9757 12.4827 81.6157 11.288C82.2771 10.072 83.1624 9.112 84.2717 8.408C85.4024 7.68267 86.6611 7.32 88.0478 7.32C89.2211 7.32 90.2558 7.576 91.1518 8.088C92.0691 8.57867 92.7944 9.26133 93.3278 10.136C93.8611 11.0107 94.1278 12.0027 94.1278 13.112V17.528C94.1278 18.6373 93.8611 19.6293 93.3278 20.504C92.8158 21.3787 92.1011 22.072 91.1838 22.584C90.2664 23.0747 89.2211 23.32 88.0478 23.32ZM88.6237 19.992C89.9251 19.992 90.9704 19.5547 91.7598 18.68C92.5704 17.8053 92.9757 16.6853 92.9757 15.32C92.9757 14.4027 92.7944 13.592 92.4318 12.888C92.0691 12.184 91.5571 11.64 90.8958 11.256C90.2558 10.8507 89.4984 10.648 88.6237 10.648C87.7704 10.648 87.0131 10.8507 86.3517 11.256C85.7117 11.64 85.1997 12.184 84.8158 12.888C84.4531 13.592 84.2717 14.4027 84.2717 15.32C84.2717 16.2373 84.4531 17.048 84.8158 17.752C85.1997 18.456 85.7117 19.0107 86.3517 19.416C87.0131 19.8 87.7704 19.992 88.6237 19.992ZM92.7517 23V18.872L93.3598 15.128L92.7517 11.416V7.64H96.2718V23H92.7517ZM98.8983 23V7.64H102.418V23H98.8983ZM109.106 23V13.848C109.106 12.824 108.786 12.0347 108.146 11.48C107.506 10.904 106.717 10.616 105.778 10.616C105.138 10.616 104.562 10.744 104.05 11C103.56 11.256 103.165 11.6293 102.866 12.12C102.568 12.5893 102.418 13.1653 102.418 13.848L101.042 13.08C101.042 11.9067 101.298 10.8933 101.81 10.04C102.322 9.18667 103.016 8.52533 103.89 8.056C104.765 7.56533 105.746 7.32 106.834 7.32C107.922 7.32 108.904 7.55467 109.778 8.024C110.653 8.49333 111.346 9.15467 111.858 10.008C112.37 10.8613 112.626 11.8853 112.626 13.08V23H109.106ZM119.314 23V13.848C119.314 12.824 118.994 12.0347 118.354 11.48C117.714 10.904 116.925 10.616 115.986 10.616C115.368 10.616 114.802 10.744 114.29 11C113.778 11.256 113.373 11.6293 113.074 12.12C112.776 12.5893 112.626 13.1653 112.626 13.848L110.642 13.08C110.749 11.9067 111.09 10.8933 111.666 10.04C112.242 9.18667 112.978 8.52533 113.874 8.056C114.792 7.56533 115.794 7.32 116.882 7.32C117.992 7.32 118.994 7.55467 119.89 8.024C120.786 8.49333 121.501 9.15467 122.034 10.008C122.568 10.8613 122.834 11.8853 122.834 13.08V23H119.314ZM132.317 23.32C130.781 23.32 129.394 22.9787 128.157 22.296C126.941 21.592 125.97 20.632 125.245 19.416C124.541 18.2 124.189 16.8347 124.189 15.32C124.189 13.8053 124.541 12.4507 125.245 11.256C125.949 10.04 126.898 9.08 128.093 8.376C129.309 7.672 130.653 7.32 132.125 7.32C133.554 7.32 134.813 7.65067 135.901 8.312C137.01 8.97333 137.874 9.88 138.493 11.032C139.133 12.184 139.453 13.496 139.453 14.968C139.453 15.224 139.431 15.4907 139.389 15.768C139.367 16.024 139.325 16.312 139.261 16.632H126.653V13.752H137.437L136.125 14.904C136.082 13.9653 135.901 13.176 135.581 12.536C135.261 11.896 134.802 11.4053 134.205 11.064C133.629 10.7227 132.914 10.552 132.061 10.552C131.165 10.552 130.386 10.744 129.725 11.128C129.063 11.512 128.551 12.056 128.189 12.76C127.826 13.4427 127.645 14.264 127.645 15.224C127.645 16.184 127.837 17.0267 128.221 17.752C128.605 18.4773 129.149 19.0427 129.853 19.448C130.557 19.832 131.367 20.024 132.285 20.024C133.074 20.024 133.799 19.8853 134.461 19.608C135.143 19.3307 135.719 18.9253 136.189 18.392L138.429 20.664C137.682 21.5387 136.775 22.2 135.709 22.648C134.642 23.096 133.511 23.32 132.317 23.32ZM146.018 23.32C145.165 23.32 144.344 23.2133 143.554 23C142.765 22.7653 142.04 22.4453 141.378 22.04C140.717 21.6133 140.141 21.1013 139.65 20.504L141.89 18.264C142.424 18.8827 143.032 19.352 143.714 19.672C144.418 19.9707 145.208 20.12 146.082 20.12C146.872 20.12 147.469 20.0027 147.874 19.768C148.28 19.5333 148.482 19.192 148.482 18.744C148.482 18.2747 148.29 17.912 147.906 17.656C147.522 17.4 147.021 17.1867 146.402 17.016C145.805 16.824 145.165 16.632 144.482 16.44C143.821 16.248 143.181 15.992 142.562 15.672C141.965 15.3307 141.474 14.872 141.09 14.296C140.706 13.72 140.514 12.9733 140.514 12.056C140.514 11.0747 140.738 10.232 141.186 9.528C141.656 8.824 142.306 8.28 143.138 7.896C143.992 7.512 145.005 7.32 146.178 7.32C147.416 7.32 148.504 7.544 149.442 7.992C150.402 8.41867 151.202 9.06933 151.842 9.944L149.602 12.184C149.154 11.6293 148.642 11.2133 148.066 10.936C147.49 10.6587 146.829 10.52 146.082 10.52C145.378 10.52 144.834 10.6267 144.45 10.84C144.066 11.0533 143.874 11.3627 143.874 11.768C143.874 12.1947 144.066 12.5253 144.45 12.76C144.834 12.9947 145.325 13.1973 145.922 13.368C146.541 13.5387 147.181 13.7307 147.842 13.944C148.525 14.136 149.165 14.4133 149.762 14.776C150.381 15.1173 150.882 15.5867 151.266 16.184C151.65 16.76 151.842 17.5173 151.842 18.456C151.842 19.9493 151.32 21.1333 150.274 22.008C149.229 22.8827 147.81 23.32 146.018 23.32Z" fill="#F24194"/>
</svg>
