<svg width="60" height="60" viewBox="0 0 60 60" fill="none" xmlns="http://www.w3.org/2000/svg">
<path d="M0 8C0 3.58172 3.58172 0 8 0H27.6923V27.6923H0V8Z" fill="#F24194"/>
<path d="M13.0018 19.6154V7.12336H14.6938V19.6154H13.0018Z" fill="white"/>
<path d="M32.3077 0H52.0001C56.4183 0 60 3.58172 60 8V27.6923H32.3077V0Z" fill="#1E71E7"/>
<path d="M40.4453 19.6154L45.5573 7.12336H46.7813L51.8753 19.6154H50.0393L45.8453 9.04936H46.4753L42.2453 19.6154H40.4453ZM42.8753 16.7894V15.3134H49.4453V16.7894H42.8753Z" fill="white"/>
<path d="M0 32.3077H27.6923V60H8C3.58172 60 0 56.4183 0 52V32.3077Z" fill="#1E71E7"/>
<path d="M10.7872 46.4871V45.0651H14.1712C14.9032 45.0651 15.4672 44.8791 15.8632 44.5071C16.2592 44.1351 16.4572 43.6311 16.4572 42.9951C16.4572 42.3951 16.2592 41.8971 15.8632 41.5011C15.4792 41.1051 14.9212 40.9071 14.1892 40.9071H10.7872V39.4311H14.2432C15.0352 39.4311 15.7252 39.5871 16.3132 39.8991C16.9012 40.1991 17.3512 40.6131 17.6632 41.1411C17.9872 41.6691 18.1492 42.2751 18.1492 42.9591C18.1492 43.6671 17.9872 44.2851 17.6632 44.8131C17.3512 45.3411 16.9012 45.7551 16.3132 46.0551C15.7252 46.3431 15.0352 46.4871 14.2432 46.4871H10.7872ZM9.65318 51.9231V39.4311H11.3452V51.9231H9.65318ZM16.8532 51.9231L12.3172 46.3251L13.9192 45.7671L18.9952 51.9231H16.8532Z" fill="white"/>
<path d="M32.3077 32.3077H60V52.0001C60 56.4183 56.4183 60 52 60H32.3077V32.3077Z" fill="#F24194"/>
<path d="M40.4453 51.9231L45.5573 39.4311H46.7813L51.8753 51.9231H50.0393L45.8453 41.3571H46.4753L42.2453 51.9231H40.4453ZM42.8753 49.0971V47.6211H49.4453V49.0971H42.8753Z" fill="white"/>
</svg>
