<svg width="200" height="52" viewBox="0 0 200 52" fill="none" xmlns="http://www.w3.org/2000/svg">
<path d="M0 8C0 3.58172 3.58172 0 8 0H24V24H0V8Z" fill="#F24194"/>
<path d="M11.1557 18V5.508H12.8477V18H11.1557Z" fill="white"/>
<path d="M28 0H44C48.4183 0 52 3.58172 52 8V24H28V0Z" fill="#F24194"/>
<path d="M34.2914 18L39.4034 5.508H40.6274L45.7214 18H43.8854L39.6914 7.434H40.3214L36.0914 18H34.2914ZM36.7214 15.174V13.698H43.2914V15.174H36.7214Z" fill="white"/>
<path d="M0 28H24V52H8C3.58172 52 0 48.4183 0 44V28Z" fill="#F24194"/>
<path d="M8.94105 40.564V39.142H12.3251C13.0571 39.142 13.6211 38.956 14.0171 38.584C14.4131 38.212 14.6111 37.708 14.6111 37.072C14.6111 36.472 14.4131 35.974 14.0171 35.578C13.6331 35.182 13.0751 34.984 12.3431 34.984H8.94105V33.508H12.3971C13.1891 33.508 13.8791 33.664 14.4671 33.976C15.0551 34.276 15.5051 34.69 15.8171 35.218C16.1411 35.746 16.3031 36.352 16.3031 37.036C16.3031 37.744 16.1411 38.362 15.8171 38.89C15.5051 39.418 15.0551 39.832 14.4671 40.132C13.8791 40.42 13.1891 40.564 12.3971 40.564H8.94105ZM7.80705 46V33.508H9.49905V46H7.80705ZM15.0071 46L10.4711 40.402L12.0731 39.844L17.1491 46H15.0071Z" fill="white"/>
<path d="M28 28H52V44C52 48.4183 48.4183 52 44 52H28V28Z" fill="#F24194"/>
<path d="M34.2914 46L39.4034 33.508H40.6274L45.7214 46H43.8854L39.6914 35.434H40.3214L36.0914 46H34.2914ZM36.7214 43.174V41.698H43.2914V43.174H36.7214Z" fill="white"/>
<rect x="64" y="6" width="136" height="40" fill="white"/>
<path d="M66.132 35V16.956H68.576V35H66.132ZM77.6711 35.26C76.5445 35.26 75.5218 34.9827 74.6031 34.428C73.6845 33.856 72.9565 33.0847 72.4191 32.114C71.8991 31.1433 71.6391 30.0513 71.6391 28.838C71.6391 27.6247 71.8991 26.5327 72.4191 25.562C72.9565 24.5913 73.6758 23.82 74.5771 23.248C75.4958 22.676 76.5271 22.39 77.6711 22.39C78.6071 22.39 79.4391 22.5893 80.1671 22.988C80.9125 23.3693 81.5105 23.9067 81.9611 24.6C82.4118 25.276 82.6631 26.0647 82.7151 26.966V30.684C82.6631 31.568 82.4118 32.3567 81.9611 33.05C81.5278 33.7433 80.9385 34.2893 80.1931 34.688C79.4651 35.0693 78.6245 35.26 77.6711 35.26ZM78.0611 33.05C79.2225 33.05 80.1585 32.66 80.8691 31.88C81.5798 31.0827 81.9351 30.0687 81.9351 28.838C81.9351 27.9887 81.7705 27.252 81.4411 26.628C81.1291 25.9867 80.6785 25.4927 80.0891 25.146C79.4998 24.782 78.8151 24.6 78.0351 24.6C77.2551 24.6 76.5618 24.782 75.9551 25.146C75.3658 25.51 74.8978 26.0127 74.5511 26.654C74.2218 27.278 74.0571 27.9973 74.0571 28.812C74.0571 29.644 74.2218 30.3807 74.5511 31.022C74.8978 31.646 75.3745 32.14 75.9811 32.504C76.5878 32.868 77.2811 33.05 78.0611 33.05ZM81.7791 35V31.672L82.2211 28.656L81.7791 25.666V22.65H84.1451V35H81.7791ZM87.5519 35V22.65H89.8919V35H87.5519ZM89.8919 27.954L89.0079 27.564C89.0079 25.9867 89.3719 24.73 90.0999 23.794C90.8279 22.858 91.8766 22.39 93.2459 22.39C93.8699 22.39 94.4333 22.5027 94.9359 22.728C95.4386 22.936 95.9066 23.2913 96.3399 23.794L94.8059 25.38C94.5459 25.1027 94.2599 24.9033 93.9479 24.782C93.6359 24.6607 93.2719 24.6 92.8559 24.6C91.9893 24.6 91.2786 24.8773 90.7239 25.432C90.1693 25.9867 89.8919 26.8273 89.8919 27.954ZM102.833 35.26C101.707 35.26 100.684 34.9827 99.7652 34.428C98.8466 33.856 98.1186 33.0847 97.5812 32.114C97.0612 31.1433 96.8012 30.0513 96.8012 28.838C96.8012 27.6247 97.0612 26.5327 97.5812 25.562C98.1186 24.5913 98.8379 23.82 99.7392 23.248C100.658 22.676 101.689 22.39 102.833 22.39C103.769 22.39 104.601 22.5893 105.329 22.988C106.075 23.3693 106.673 23.9067 107.123 24.6C107.574 25.276 107.825 26.0647 107.877 26.966V30.684C107.825 31.568 107.574 32.3567 107.123 33.05C106.69 33.7433 106.101 34.2893 105.355 34.688C104.627 35.0693 103.787 35.26 102.833 35.26ZM103.223 33.05C104.385 33.05 105.321 32.66 106.031 31.88C106.742 31.0827 107.097 30.0687 107.097 28.838C107.097 27.9887 106.933 27.252 106.603 26.628C106.291 25.9867 105.841 25.4927 105.251 25.146C104.662 24.782 103.977 24.6 103.197 24.6C102.417 24.6 101.724 24.782 101.117 25.146C100.528 25.51 100.06 26.0127 99.7132 26.654C99.3839 27.278 99.2192 27.9973 99.2192 28.812C99.2192 29.644 99.3839 30.3807 99.7132 31.022C100.06 31.646 100.537 32.14 101.143 32.504C101.75 32.868 102.443 33.05 103.223 33.05ZM106.941 35V31.672L107.383 28.656L106.941 25.666V22.65H109.307V35H106.941ZM126.702 35.26C125.437 35.26 124.25 35.026 123.14 34.558C122.048 34.0727 121.086 33.4053 120.254 32.556C119.44 31.7067 118.798 30.7187 118.33 29.592C117.862 28.4653 117.628 27.252 117.628 25.952C117.628 24.652 117.862 23.4473 118.33 22.338C118.798 21.2113 119.448 20.2233 120.28 19.374C121.112 18.5247 122.083 17.866 123.192 17.398C124.319 16.93 125.541 16.696 126.858 16.696C128.297 16.696 129.623 16.9733 130.836 17.528C132.05 18.0827 133.064 18.88 133.878 19.92L132.188 21.61C131.616 20.778 130.862 20.1453 129.926 19.712C128.99 19.2613 127.968 19.036 126.858 19.036C125.541 19.036 124.371 19.3307 123.348 19.92C122.343 20.5093 121.554 21.324 120.982 22.364C120.428 23.404 120.15 24.6 120.15 25.952C120.15 27.3213 120.436 28.526 121.008 29.566C121.58 30.606 122.352 31.4207 123.322 32.01C124.293 32.5993 125.402 32.894 126.65 32.894C127.916 32.894 129.008 32.6513 129.926 32.166C130.862 31.6807 131.582 30.97 132.084 30.034C132.587 29.0807 132.838 27.9193 132.838 26.55L134.32 27.616H126.52V25.38H135.36V25.744C135.36 27.8413 134.988 29.6007 134.242 31.022C133.514 32.426 132.492 33.4833 131.174 34.194C129.874 34.9047 128.384 35.26 126.702 35.26ZM143.484 35.26C142.357 35.26 141.334 34.9827 140.416 34.428C139.497 33.856 138.769 33.0847 138.232 32.114C137.712 31.1433 137.452 30.0513 137.452 28.838C137.452 27.6247 137.712 26.5327 138.232 25.562C138.769 24.5913 139.488 23.82 140.39 23.248C141.308 22.676 142.34 22.39 143.484 22.39C144.42 22.39 145.252 22.5893 145.98 22.988C146.725 23.3693 147.323 23.9067 147.774 24.6C148.224 25.276 148.476 26.0647 148.528 26.966V30.684C148.476 31.568 148.224 32.3567 147.774 33.05C147.34 33.7433 146.751 34.2893 146.006 34.688C145.278 35.0693 144.437 35.26 143.484 35.26ZM143.874 33.05C145.035 33.05 145.971 32.66 146.682 31.88C147.392 31.0827 147.748 30.0687 147.748 28.838C147.748 27.9887 147.583 27.252 147.254 26.628C146.942 25.9867 146.491 25.4927 145.902 25.146C145.312 24.782 144.628 24.6 143.848 24.6C143.068 24.6 142.374 24.782 141.768 25.146C141.178 25.51 140.71 26.0127 140.364 26.654C140.034 27.278 139.87 27.9973 139.87 28.812C139.87 29.644 140.034 30.3807 140.364 31.022C140.71 31.646 141.187 32.14 141.794 32.504C142.4 32.868 143.094 33.05 143.874 33.05ZM147.592 35V31.672L148.034 28.656L147.592 25.666V22.65H149.958V35H147.592ZM153.364 35V22.65H155.704V35H153.364ZM161.71 35V27.538C161.71 26.6193 161.424 25.9 160.852 25.38C160.298 24.8427 159.596 24.574 158.746 24.574C158.174 24.574 157.663 24.6953 157.212 24.938C156.762 25.1807 156.398 25.5187 156.12 25.952C155.843 26.3853 155.704 26.9053 155.704 27.512L154.742 27.044C154.742 26.108 154.942 25.2933 155.34 24.6C155.756 23.9067 156.32 23.3693 157.03 22.988C157.741 22.5893 158.538 22.39 159.422 22.39C160.289 22.39 161.069 22.5807 161.762 22.962C162.473 23.3433 163.028 23.8807 163.426 24.574C163.842 25.2673 164.05 26.0907 164.05 27.044V35H161.71ZM170.056 35V27.538C170.056 26.6193 169.77 25.9 169.198 25.38C168.644 24.8427 167.95 24.574 167.118 24.574C166.546 24.574 166.026 24.6953 165.558 24.938C165.108 25.1807 164.744 25.5187 164.466 25.952C164.189 26.3853 164.05 26.9053 164.05 27.512L162.724 27.044C162.776 26.0907 163.028 25.276 163.478 24.6C163.946 23.9067 164.544 23.3693 165.272 22.988C166 22.5893 166.798 22.39 167.664 22.39C168.566 22.39 169.372 22.5807 170.082 22.962C170.793 23.3433 171.356 23.8807 171.772 24.574C172.206 25.2673 172.422 26.0993 172.422 27.07V35H170.056ZM181.327 35.26C180.096 35.26 178.987 34.9827 177.999 34.428C177.011 33.856 176.231 33.0847 175.659 32.114C175.087 31.1433 174.801 30.0427 174.801 28.812C174.801 27.5987 175.078 26.5067 175.633 25.536C176.205 24.5653 176.967 23.8027 177.921 23.248C178.891 22.676 179.975 22.39 181.171 22.39C182.315 22.39 183.32 22.65 184.187 23.17C185.071 23.69 185.755 24.4093 186.241 25.328C186.743 26.2467 186.995 27.2867 186.995 28.448C186.995 28.6213 186.986 28.812 186.969 29.02C186.951 29.2107 186.917 29.436 186.865 29.696H176.439V27.746H185.617L184.759 28.5C184.759 27.668 184.611 26.966 184.317 26.394C184.022 25.8047 183.606 25.354 183.069 25.042C182.531 24.7127 181.881 24.548 181.119 24.548C180.321 24.548 179.619 24.7213 179.013 25.068C178.406 25.4147 177.938 25.9 177.609 26.524C177.279 27.148 177.115 27.8847 177.115 28.734C177.115 29.6007 177.288 30.3633 177.635 31.022C177.981 31.6633 178.475 32.166 179.117 32.53C179.758 32.8767 180.495 33.05 181.327 33.05C182.02 33.05 182.653 32.9287 183.225 32.686C183.814 32.4433 184.317 32.0793 184.733 31.594L186.241 33.128C185.651 33.8213 184.923 34.35 184.057 34.714C183.207 35.078 182.297 35.26 181.327 35.26ZM193.472 35.26C192.779 35.26 192.12 35.1733 191.496 35C190.889 34.8093 190.326 34.5493 189.806 34.22C189.286 33.8733 188.835 33.466 188.454 32.998L189.962 31.49C190.413 32.0447 190.933 32.4607 191.522 32.738C192.111 32.998 192.77 33.128 193.498 33.128C194.226 33.128 194.789 33.0067 195.188 32.764C195.587 32.504 195.786 32.1487 195.786 31.698C195.786 31.2473 195.621 30.9007 195.292 30.658C194.98 30.398 194.573 30.19 194.07 30.034C193.567 29.8607 193.03 29.696 192.458 29.54C191.903 29.3667 191.375 29.15 190.872 28.89C190.369 28.63 189.953 28.2747 189.624 27.824C189.312 27.3733 189.156 26.7753 189.156 26.03C189.156 25.2847 189.338 24.6433 189.702 24.106C190.066 23.5513 190.569 23.1267 191.21 22.832C191.869 22.5373 192.657 22.39 193.576 22.39C194.547 22.39 195.405 22.5633 196.15 22.91C196.913 23.2393 197.537 23.742 198.022 24.418L196.514 25.926C196.167 25.4753 195.734 25.1287 195.214 24.886C194.711 24.6433 194.139 24.522 193.498 24.522C192.822 24.522 192.302 24.6433 191.938 24.886C191.591 25.1113 191.418 25.432 191.418 25.848C191.418 26.264 191.574 26.5847 191.886 26.81C192.198 27.0353 192.605 27.226 193.108 27.382C193.628 27.538 194.165 27.7027 194.72 27.876C195.275 28.032 195.803 28.2487 196.306 28.526C196.809 28.8033 197.216 29.176 197.528 29.644C197.857 30.112 198.022 30.7273 198.022 31.49C198.022 32.6513 197.606 33.57 196.774 34.246C195.959 34.922 194.859 35.26 193.472 35.26Z" fill="#1E71E7"/>
</svg>
